<svg>
	<symbol id="Ring-Phone" viewBox="0 0 14 14" xmlns="http://www.w3.org/2000/svg">
        <path d="M13.1657 10.7527L11.6772 9.75323L10.354 8.86494C10.0986 8.69382 9.75543 8.74992 9.56691 8.99364L8.74811 10.0538C8.57223 10.2838 8.25584 10.3499 8.00362 10.2093C7.44804 9.89802 6.79105 9.60496 5.34144 8.14312C3.89183 6.68128 3.59899 6.02148 3.28994 5.46193C3.1503 5.20791 3.21594 4.88925 3.44435 4.71214L4.49695 3.8875C4.73892 3.69766 4.79464 3.35201 4.62474 3.09479L3.76984 1.80315L2.75033 0.262951C2.57681 0.000792885 2.22944 -0.0779127 1.96117 0.0841204L0.785395 0.794531C0.467639 0.983081 0.234062 1.28755 0.133048 1.64481C-0.188484 2.82548 -0.25331 5.42997 3.89112 9.60401C8.03556 13.778 10.6213 13.7125 11.7936 13.3887C12.1484 13.287 12.4507 13.0517 12.6379 12.7317L13.3433 11.5475C13.5042 11.2773 13.426 10.9275 13.1657 10.7527Z" fill="#0C5CAB"/>
        <path d="M7.63871 2.09813C9.81115 2.10056 11.5717 3.87365 11.5741 6.06164C11.5741 6.19039 11.6777 6.2948 11.8056 6.2948C11.9335 6.2948 12.0371 6.19042 12.0371 6.06164C12.0344 3.61625 10.0668 1.63453 7.63873 1.63184C7.51089 1.63184 7.40723 1.73621 7.40723 1.86499C7.4072 1.99372 7.51084 2.09813 7.63871 2.09813Z" />
        <path d="M7.63873 3.49757C9.04441 3.49923 10.1835 4.64648 10.1852 6.06218C10.1852 6.19094 10.2888 6.29534 10.4167 6.29534C10.5445 6.29534 10.6482 6.19096 10.6482 6.06218C10.6463 4.38905 9.30002 3.03318 7.63873 3.03125C7.51089 3.03125 7.40723 3.13563 7.40723 3.26441C7.40723 3.39319 7.51086 3.49757 7.63873 3.49757Z" fill="#0C5CAB"/>
        <path d="M7.63871 4.89598C8.27765 4.89674 8.79542 5.41821 8.79618 6.06172C8.79618 6.19047 8.89982 6.29488 9.02768 6.29488C9.15553 6.29488 9.25919 6.1905 9.25919 6.06172C9.25817 5.1608 8.53326 4.43072 7.63873 4.42969C7.51089 4.42969 7.40723 4.53406 7.40723 4.66285C7.4072 4.7916 7.51084 4.89598 7.63871 4.89598Z" fill="#0C5CAB"/>
    </symbol>
    <symbol id="Right-Arrow"  viewBox="0 0 19 9" xmlns="http://www.w3.org/2000/svg">
        <path d="M18.4854 3.86166C18.4852 3.86145 18.485 3.86121 18.4848 3.861L14.8223 0.204748C14.5479 -0.0691546 14.1041 -0.0681353 13.831 0.207138C13.5579 0.482376 13.5589 0.927559 13.8333 1.2015L16.2923 3.65625H1.448C1.06088 3.65625 0.74707 3.97104 0.74707 4.35937C0.74707 4.74771 1.06088 5.0625 1.448 5.0625H16.2923L13.8333 7.51724C13.559 7.79118 13.5579 8.23637 13.831 8.5116C14.1041 8.78691 14.5479 8.78786 14.8223 8.51399L18.4848 4.85775C18.485 4.85753 18.4852 4.85729 18.4854 4.85708C18.76 4.58223 18.7591 4.1356 18.4854 3.86166Z" fill="#0C5CAB"/>
    </symbol>
    <symbol id="Pointer"  viewBox="0 0 10 14" xmlns="http://www.w3.org/2000/svg">
        <path d="M5 0C2.24167 0 0 2.20621 0 4.92091C0 5.83675 0.258333 6.73345 0.747222 7.50986L4.71667 13.8059C4.79167 13.9262 4.92778 14 5.06944 14H5.07222C5.21667 14 5.35278 13.9235 5.42778 13.8004L9.29445 7.44425C9.75556 6.68424 10 5.81215 10 4.92365C10 2.20621 7.75833 0 5 0ZM5 7.38137C3.60278 7.38137 2.5 6.2687 2.5 4.92091C2.5 3.56493 3.62222 2.46046 5 2.46046C6.37778 2.46046 7.5 3.56493 7.5 4.92091C7.5 6.25503 6.41389 7.38137 5 7.38137Z" fill="#0C5CAB"/>
    </symbol>
    <symbol id="Phone"  viewBox="0 0 18 18" xmlns="http://www.w3.org/2000/svg">
        <path d="M16.5557 11.8149C15.4537 11.8149 14.3716 11.6426 13.3462 11.3037C12.8438 11.1323 12.2261 11.2896 11.9194 11.6045L9.8955 13.1324C7.54833 11.8794 6.10252 10.4341 4.8667 8.10455L6.34959 6.13336C6.73486 5.74861 6.87305 5.18658 6.70748 4.65923C6.36717 3.62845 6.1943 2.54691 6.1943 1.44441C6.19434 0.647953 5.54639 0 4.74998 0H1.44436C0.647953 0 0 0.647953 0 1.44436C0 10.5733 7.42678 18 16.5557 18C17.3521 18 18 17.352 18 16.5556V13.2593C18 12.4629 17.352 11.8149 16.5557 11.8149Z" fill="#0C5CAB"/>
    </symbol>
    <symbol id="Mail"  viewBox="0 0 14 11" xmlns="http://www.w3.org/2000/svg">
        <path d="M0.282303 0.822877C2.13824 2.39465 5.39483 5.15989 6.35199 6.02209C6.48048 6.13846 6.6183 6.19762 6.76137 6.19762C6.90415 6.19762 7.04173 6.13902 7.16993 6.0232C8.1279 5.16015 11.3845 2.39465 13.2405 0.822877C13.356 0.725208 13.3736 0.553533 13.2801 0.434126C13.0638 0.158205 12.7414 0 12.3958 0H1.12692C0.781375 0 0.458917 0.158205 0.242686 0.434153C0.149136 0.553533 0.166752 0.725208 0.282303 0.822877Z" fill="#0C5CAB"/>
        <path d="M13.3596 1.6747C13.2598 1.62822 13.1423 1.64443 13.0592 1.71543C11.8437 2.74574 10.2423 4.10705 9.0345 5.14589C8.97095 5.20038 8.93519 5.28043 8.93656 5.36434C8.93793 5.44799 8.97673 5.52693 9.04221 5.5792C10.1644 6.47801 11.8556 7.71441 13.0768 8.59315C13.1255 8.62836 13.1833 8.64624 13.2414 8.64624C13.2854 8.64624 13.3294 8.63607 13.3698 8.61515C13.4639 8.567 13.5231 8.47015 13.5231 8.3645V1.93029C13.5231 1.82052 13.4592 1.72066 13.3596 1.6747Z" fill="#0C5CAB"/>
        <path d="M0.446249 8.59291C1.66778 7.71417 3.35923 6.47779 4.48116 5.57895C4.54664 5.52669 4.58544 5.44772 4.58681 5.3641C4.58818 5.28019 4.55242 5.20013 4.48888 5.14565C3.28108 4.1068 1.67932 2.7455 0.463866 1.71519C0.38022 1.64419 0.262478 1.62853 0.163435 1.67446C0.0638367 1.72042 0 1.82028 0 1.93004V8.36429C0 8.46993 0.0591618 8.56679 0.15324 8.61493C0.193676 8.63585 0.237704 8.64602 0.281732 8.64602C0.339784 8.64602 0.397546 8.62814 0.446249 8.59291Z" fill="#0C5CAB"/>
        <path d="M13.1772 9.35994C11.9978 8.51614 9.82513 6.94302 8.52822 5.89039C8.42257 5.80429 8.2696 5.80703 8.16562 5.89673C7.91114 6.11874 7.69818 6.30584 7.54714 6.44173C7.08327 6.86046 6.43949 6.86046 5.97454 6.44117C5.82405 6.30555 5.61112 6.1179 5.35662 5.8967C5.25345 5.80645 5.10021 5.80371 4.99428 5.89036C3.70175 6.9394 1.52666 8.51445 0.345295 9.35991C0.27953 9.40724 0.237166 9.48014 0.228925 9.56075C0.220949 9.64135 0.247625 9.72141 0.30293 9.78083C0.516177 10.0106 0.816608 10.1424 1.12668 10.1424H12.3956C12.7057 10.1424 13.0058 10.0106 13.2196 9.78086C13.2746 9.7217 13.3016 9.64164 13.2936 9.56104C13.2853 9.48045 13.243 9.40727 13.1772 9.35994Z" fill="#0C5CAB"/>
    </symbol>
    <symbol  id="Light" viewBox="0 0 549 339" xmlns="http://www.w3.org/2000/svg">
        <path d="M106.129 199.961H33.7228C32.7682 199.961 31.8903 200.47 31.4357 201.287L0.438722 256.987C-0.500063 258.674 0.754816 260.724 2.72588 260.724H142.541C143.459 260.724 144.31 260.252 144.778 259.483L183.372 196.092C184.386 194.426 186.87 194.44 187.863 196.119L271.706 337.732C272.732 339.466 275.322 339.41 276.269 337.634L309.838 274.617C310.248 273.849 310.225 272.93 309.779 272.181L190.462 72.0294C189.466 70.3594 186.993 70.3451 185.978 72.0036L108.363 198.725C107.894 199.491 107.045 199.961 106.129 199.961Z" fill="#93C9FF"/>
        <path d="M393.417 138.027L432.001 203.749C432.464 204.537 433.326 205.024 434.259 205.024L514.407 205.024C515.377 205.024 516.267 204.499 516.715 203.661L547.824 145.429C548.725 143.743 547.468 141.729 545.516 141.729L470.664 141.729C469.736 141.729 468.879 141.248 468.414 140.467L395.944 18.8504C394.951 17.1827 392.483 17.1649 391.464 18.8181L317.969 138.046C316.949 139.7 314.48 139.681 313.487 138.012L232.149 1.26329C231.139 -0.435053 228.614 -0.417456 227.628 1.29477L194.169 59.4515C193.72 60.232 193.728 61.1854 194.189 61.9592L313.404 261.939C314.416 263.637 316.943 263.616 317.925 261.901L388.887 138.05C389.873 136.329 392.413 136.316 393.417 138.027Z" fill="#93C9FF"/>
    </symbol>
    <symbol id="RightArrowWhite" viewBox="0 0 24 11" xmlns="http://www.w3.org/2000/svg">
        <path d="M23.6793 4.87207C23.679 4.8718 23.6788 4.87149 23.6785 4.87123L18.9679 0.25832C18.615 -0.0872489 18.0443 -0.0859629 17.693 0.261336C17.3418 0.60859 17.3431 1.17026 17.696 1.51587L20.8587 4.6129H1.76674C1.26884 4.6129 0.865234 5.01006 0.865234 5.5C0.865234 5.98994 1.26884 6.3871 1.76674 6.3871H20.8586L17.696 9.48413C17.3432 9.82974 17.3418 10.3914 17.693 10.7387C18.0443 11.086 18.6151 11.0872 18.968 10.7417L23.6785 6.12877C23.6788 6.12851 23.679 6.1282 23.6793 6.12793C24.0324 5.78117 24.0313 5.21768 23.6793 4.87207Z" fill="white"/>
    </symbol>
    <symbol id="Line"  height="1" viewBox="0 0 50 1" xmlns="http://www.w3.org/2000/svg">
        <line x1="4.37114e-08" y1="0.5" x2="50" y2="0.500004" stroke="#0C5CAB"/>
    </symbol>
    <symbol id="Vk" viewBox="0 0 32 32"  xmlns="http://www.w3.org/2000/svg">
        <path fill-rule="evenodd" clip-rule="evenodd" d="M31.4094 15.7486C31.4094 24.4462 24.3788 31.4971 15.7042 31.4971C7.03062 31.4971 0 24.4462 0 15.7486C0 7.05097 7.03062 0 15.7042 0C24.3788 0 31.4094 7.05097 31.4094 15.7486Z" fill="#4B76A8"/>
        <path fill-rule="evenodd" clip-rule="evenodd" d="M24.9084 11.7438C25.0406 11.3041 24.9084 10.9795 24.2821 10.9795H22.2078C21.6799 10.9795 21.4373 11.2593 21.3051 11.5683C21.3051 11.5683 20.2511 14.1457 18.7568 15.8197C18.2735 16.3043 18.0538 16.4579 17.7903 16.4579C17.659 16.4579 17.4611 16.3043 17.4611 15.8636V11.7438C17.4611 11.2154 17.3143 10.9795 16.8749 10.9795H13.6162C13.2871 10.9795 13.0892 11.2254 13.0892 11.4577C13.0892 11.9587 13.836 12.0739 13.9126 13.4837V16.5466C13.9126 17.2177 13.7922 17.3393 13.5287 17.3393C12.8257 17.3393 11.1153 14.7509 10.1014 11.7886C9.90261 11.2126 9.70294 10.9795 9.1732 10.9795H7.09894C6.50629 10.9795 6.38867 11.2593 6.38867 11.5683C6.38867 12.1187 7.09073 14.8497 9.66191 18.4638C11.3751 20.9306 13.7895 22.2682 15.9868 22.2682C17.3052 22.2682 17.4675 21.971 17.4675 21.459V19.5948C17.4675 19.0005 17.5933 18.8826 18.01 18.8826C18.3173 18.8826 18.8452 19.0362 20.0752 20.2257C21.4811 21.6355 21.8495 22.4053 22.64 22.4053H24.7142C25.3069 22.4053 25.6023 22.1082 25.4318 21.5212C25.2449 20.9379 24.4371 19.9532 23.5463 18.9484C23.063 18.3751 22.3382 17.758 22.1184 17.4499C21.8112 17.054 21.8987 16.8766 22.1184 16.5246C22.1184 16.5246 24.6449 12.9553 24.9084 11.7438Z" fill="white"/>
    </symbol>
    <symbol id="Inst" viewBox="0 0 31 32" xmlns="http://www.w3.org/2000/svg">
        <path fill-rule="evenodd" clip-rule="evenodd" d="M30.3971 15.7486C30.3971 24.4462 23.5924 31.4971 15.1985 31.4971C6.80471 31.4971 0 24.4462 0 15.7486C0 7.05097 6.80471 0 15.1985 0C23.5924 0 30.3971 7.05097 30.3971 15.7486Z" fill="url(#paint0_linear)"/>
        <path fill-rule="evenodd" clip-rule="evenodd" d="M20.7404 19.0704C20.7404 20.6668 19.4954 21.8956 18.0139 21.8956H12.3819C10.8413 21.8956 9.65541 20.6055 9.65541 19.0704V13.2346C9.65541 11.6382 10.9004 10.4094 12.3819 10.4094H18.0139C19.5545 10.4094 20.7404 11.6995 20.7404 13.2346V19.0704ZM18.0143 8.93555H12.3822C10.0713 8.93555 8.2334 10.8391 8.2334 13.2345V19.0704C8.2334 21.4649 10.0713 23.3694 12.3822 23.3694H18.0143C20.326 23.3694 22.1631 21.4649 22.1631 19.0704V13.2345C22.1631 10.8391 20.266 8.93555 18.0143 8.93555ZM15.1688 18.3946C13.9829 18.3946 12.9753 17.3496 12.9753 16.1226C12.9753 14.8938 13.9829 13.8488 15.1688 13.8488C16.3547 13.8488 17.3624 14.8938 17.3624 16.1226C17.3624 17.4118 16.4138 18.3946 15.1688 18.3946ZM15.1692 12.4362C13.213 12.4362 11.5533 14.0947 11.5533 16.1829C11.5533 18.2099 13.1539 19.9306 15.1692 19.9306C17.1253 19.9306 18.7851 18.2711 18.7851 16.1829C18.7851 14.0947 17.1845 12.4362 15.1692 12.4362ZM19.6734 12.4366C19.6734 11.9274 19.2755 11.515 18.7849 11.515C18.2934 11.515 17.8955 11.9274 17.8955 12.4366C17.8955 12.945 18.2934 13.3582 18.7849 13.3582C19.2755 13.3582 19.6734 12.945 19.6734 12.4366Z" />
    </symbol>
    <symbol id="FaceBook" viewBox="0 0 31 32" xmlns="http://www.w3.org/2000/svg">
        <path fill-rule="evenodd" clip-rule="evenodd" d="M30.3971 15.7486C30.3971 24.4462 23.5924 31.4971 15.1985 31.4971C6.80471 31.4971 0 24.4462 0 15.7486C0 7.05097 6.80471 0 15.1985 0C23.5924 0 30.3971 7.05097 30.3971 15.7486" fill="#4267B2"/>
        <path fill-rule="evenodd" clip-rule="evenodd" d="M16.2923 13.2079V11.9023V11.4899C16.2923 11.3537 16.3585 11.2842 16.4247 11.1471C16.4909 11.0785 16.5571 10.9413 16.6903 10.9413C16.8226 10.8719 17.0212 10.8719 17.2206 10.8719H18.4797V8.33105H16.4909C15.3641 8.33105 14.5029 8.60534 14.0388 9.15483C13.5085 9.70431 13.3091 10.5281 13.3091 11.6271V13.1393H11.8506V15.7487H13.3091V23.1672H16.2923V15.7487H18.2812L18.5459 13.2079H16.2923Z" fill="white"/>
    </symbol>
    <symbol id="download" viewBox="0 0 21 25" xmlns="http://www.w3.org/2000/svg">
        <path d="M14.2968 0.831055H6.98845C5.46759 0.831055 4.23028 2.09274 4.23028 3.6436V4.57815H3.3109C1.79004 4.57815 0.552734 5.84002 0.552734 7.39107V22.0182C0.552734 23.5692 1.79004 24.8311 3.3109 24.8311H14.0677C15.5885 24.8311 16.8258 23.5692 16.8258 22.0182V21.0807L17.2855 21.0805C18.8064 21.0805 20.0437 19.8189 20.0437 18.268V6.7254L14.2968 0.831055ZM14.8032 4.01002L16.9112 6.17209H15.7226C15.2156 6.17209 14.8032 5.75148 14.8032 5.23445V4.01002ZM14.9871 22.0181C14.9871 22.5352 14.5746 22.9558 14.0677 22.9558H3.3109C2.80393 22.9558 2.39151 22.5352 2.39151 22.0181V7.39102C2.39151 6.87399 2.80393 6.45338 3.3109 6.45338H4.23028V18.2714C4.23028 19.8223 5.46759 21.084 6.98877 21.084L14.9871 21.0812V22.0181ZM18.2049 18.268C18.2049 18.7848 17.7925 19.2053 17.2852 19.2053L6.98845 19.2087C6.48148 19.2087 6.06906 18.7883 6.06906 18.2715V3.6436C6.06906 3.1268 6.48148 2.70634 6.98845 2.70634H12.9644V5.23449C12.9644 6.78554 14.2018 8.04741 15.7226 8.04741H18.2049V18.268H18.2049Z"/>
    </symbol>
</svg>